<svg width="800" height="800" viewBox="0 0 800 800" fill="none" xmlns="http://www.w3.org/2000/svg">
  <rect width="800" height="800" rx="64" fill="#F8F3EA"/>
  <circle cx="400" cy="290" r="170" fill="#FFE8A3" fill-opacity="0.55"/>
  <path d="M318 210C318 183.49 339.49 162 366 162H434C460.51 162 482 183.49 482 210V250H318V210Z" fill="#1F2937"/>
  <path d="M310 250H490L520 350H280L310 250Z" fill="#374151"/>
  <path d="M338 350H462L490 620H310L338 350Z" fill="#111827"/>
  <path d="M266 622H534C548.359 622 560 633.641 560 648V662C560 676.359 548.359 688 534 688H266C251.641 688 240 676.359 240 662V648C240 633.641 251.641 622 266 622Z" fill="#334155"/>
  <path d="M370 500C370 470.177 394.177 446 424 446H468V382H330V446C330 470.177 349.823 500 379.646 500H370Z" fill="#F97316" fill-opacity="0.92"/>
  <path d="M346 330H454L468 382H332L346 330Z" fill="#D1D5DB"/>
  <rect x="330" y="382" width="140" height="34" rx="17" fill="#E5E7EB"/>
  <rect x="354" y="428" width="92" height="16" rx="8" fill="#F59E0B" fill-opacity="0.8"/>
  <circle cx="400" cy="458" r="16" fill="#FBBF24"/>
  <circle cx="400" cy="458" r="7" fill="#FFF7D6"/>
  <path d="M394 250H406V330H394V250Z" fill="#E5E7EB"/>
  <path d="M356 235L364 210H436L444 235H356Z" fill="#4B5563"/>
  <circle cx="400" cy="194" r="8" fill="#FCD34D"/>
  <path d="M257 646H543" stroke="#111827" stroke-width="14" stroke-linecap="round" opacity="0.25"/>
</svg>
